<svg width="352" height="396" viewBox="0 0 352 396" fill="none" xmlns="http://www.w3.org/2000/svg">
<g clip-path="url(#clip0_2_42)">
<path opacity="0.18" d="M349.75 142.14C352.273 152.133 352.579 162.556 350.646 172.679C348.713 182.803 344.588 192.38 338.56 200.74C329.56 212.99 316.73 222.15 308.74 235.05C291.47 262.9 300.74 300.93 284.9 329.62C271.66 353.62 244.23 365.41 218.76 375.53C198.76 383.47 178.56 391.46 157.36 394.66C136.16 397.86 113.36 395.83 94.99 384.8C79.84 375.73 68.71 361.35 58.43 346.99C33.16 311.66 10.32 273.19 2.56 230.45C-5.2 187.71 4.48 139.77 36.3 110.2C51.79 95.8 72.08 85.87 83.01 67.76C94.48 48.76 94.64 22.25 112.47 9.00999C119.05 4.11999 127.23 1.84999 135.35 0.769993C154.899 -1.74632 174.74 2.07043 191.96 11.66C209.43 21.45 223.77 37.01 242.8 43.27C267.43 51.38 299.04 45.15 315.41 69.15C328.56 88.45 343.91 119.66 349.75 142.14Z" fill="#68E1FD"/>
<path d="M244.95 128.48C244.664 129.083 244.275 129.632 243.8 130.1C239.989 134.126 235.055 136.913 229.64 138.1C227.728 138.54 225.772 138.762 223.81 138.76C222.66 131.34 221.49 123.91 220.59 116.46C219.88 110.64 219.35 104.83 219.1 98.99C218.93 95.33 211 82.57 212.62 79.15C214.41 75.39 227.3 88.26 228.75 90.71C236.8 104.21 239.69 114.65 245.21 126.26C245.419 127.005 245.326 127.803 244.95 128.48Z" fill="#68E1FD"/>
<path d="M230.94 136.74C230.554 137.242 230.118 137.705 229.64 138.12C227.728 138.56 225.772 138.782 223.81 138.78C222.66 131.36 221.49 123.93 220.59 116.48C220.93 110.627 221.547 104.797 222.44 98.99C222.06 101.42 225.05 106.72 225.86 109.1L229.37 119.47C231.2 124.88 235.11 131.46 230.94 136.74Z" fill="url(#paint0_linear_2_42)"/>
<path d="M226.63 149.43C227.43 154.31 228.45 159.25 230.86 163.57C232.1 165.79 233.95 167.97 236.46 168.36C237.856 168.492 239.263 168.283 240.56 167.75C243.248 166.825 245.783 165.504 248.08 163.83C250.275 162.147 252.344 160.305 254.27 158.32C257.135 155.616 259.786 152.694 262.2 149.58C263.31 148.08 264.32 146.5 265.53 145.07C270.53 139.12 278.53 136.45 284.2 131.14C285.73 129.72 288.83 123.22 288.6 121.14C286.52 119.94 282.25 124.77 279.95 125.47C277.65 126.17 275.5 127.31 273.19 127.96C270.424 128.731 267.505 128.769 264.72 128.07C263.78 127.83 262.66 113 261.72 113.34C261.247 113.538 260.823 113.839 260.48 114.22C258.54 116.22 257.48 133.29 255.87 135.51C253.66 138.51 250.6 140.79 247.57 142.97C247.3 143.16 246.96 143.36 246.66 143.21C246.561 143.136 246.478 143.044 246.416 142.937C246.354 142.83 246.315 142.712 246.3 142.59C245.51 139.66 244.62 136.75 243.65 133.88C242.97 131.88 242.01 129.68 240 129.08C238.21 128.55 236.35 129.56 234.75 130.53C232.69 131.79 230.61 133.03 228.56 134.3C227.42 135 226.04 135.68 225.5 136.97C224.84 138.52 225.4 140.66 225.59 142.25C225.89 144.66 226.24 147.05 226.63 149.43Z" fill="#F5BCBA"/>
<path d="M244.88 285.44C244.88 288.5 244.73 291.51 244.46 294.5C242.127 320.088 230.055 343.802 210.737 360.743C191.419 377.684 166.332 386.558 140.659 385.531C114.985 384.504 90.6874 373.655 72.7845 355.225C54.8817 336.795 44.7419 312.192 44.46 286.5C44.46 286.16 44.46 285.83 44.46 285.5C44.3277 272.255 46.8221 259.116 51.7991 246.841C56.776 234.566 64.1368 223.4 73.4557 213.988C82.7747 204.575 93.867 197.103 106.091 192.004C118.316 186.904 131.43 184.279 144.675 184.279C157.92 184.279 171.034 186.904 183.259 192.004C195.483 197.103 206.575 204.575 215.894 213.988C225.213 223.4 232.574 234.566 237.551 246.841C242.528 259.116 245.022 272.255 244.89 285.5L244.88 285.44Z" fill="#68E1FD"/>
<path d="M244.88 285.44C244.88 288.5 244.73 291.51 244.46 294.5C221.4 310.19 187.46 320.09 149.61 320.09C105.61 320.09 66.95 306.72 44.46 286.45C44.46 286.11 44.46 285.78 44.46 285.45C44.3277 272.205 46.8221 259.066 51.7991 246.791C56.776 234.516 64.1368 223.35 73.4557 213.938C82.7747 204.525 93.867 197.053 106.091 191.954C118.316 186.854 131.43 184.229 144.675 184.229C157.92 184.229 171.034 186.854 183.259 191.954C195.483 197.053 206.575 204.525 215.894 213.938C225.213 223.35 232.574 234.516 237.551 246.791C242.528 259.066 245.022 272.205 244.89 285.45L244.88 285.44Z" fill="url(#paint1_linear_2_42)"/>
<path d="M190.62 246.26C194.62 247.7 198.97 248.73 202.25 251.46C205.16 253.87 206.93 257.36 208.36 260.85C213.128 272.562 214.848 285.292 213.36 297.85C212.96 301.19 212.36 304.63 213.23 307.85C214.1 311.07 217.07 314.09 220.41 313.69C225.04 304.49 225.14 293.75 225.15 283.45C225.15 275.93 225.15 268.25 222.63 261.16C220.57 255.32 216.93 250.16 213.17 245.25C199.46 227.25 182.87 210.46 161.75 202.37C160.874 201.922 159.868 201.798 158.91 202.02C154.56 203.61 155.27 211.35 156.96 214.46C159.36 218.756 162.032 222.895 164.96 226.85C171.383 235.737 180.32 242.497 190.62 246.26Z" fill="url(#paint2_linear_2_42)"/>
<path d="M151.07 223.66C151.129 222.314 151.303 220.976 151.59 219.66C151.744 219.007 152.074 218.409 152.545 217.931C153.016 217.453 153.609 217.114 154.26 216.95C154.809 216.935 155.357 216.885 155.9 216.8C157.01 216.46 157.48 215.17 157.8 214.06L161.35 201.66C162.03 199.26 162.72 196.74 162.2 194.31C161.38 190.51 157.89 187.94 154.49 186.08C152.02 184.72 149.24 183.51 146.49 184.02C142.23 184.81 139.76 189.21 138.17 193.24C136.32 197.558 135.181 202.148 134.8 206.83C134.52 212.24 134.06 225.49 137.41 230.22C142.05 236.86 150.33 229.66 151.07 223.66Z" fill="url(#paint3_linear_2_42)"/>
<path d="M205.01 208.01C214.08 211.08 223.75 212.37 232.49 216.28C232.772 216.365 233.032 216.508 233.256 216.699C233.48 216.89 233.662 217.125 233.79 217.39C233.866 217.823 233.811 218.269 233.63 218.67C226.249 240.621 222.086 263.526 221.27 286.67C226.5 287.611 231.844 287.729 237.11 287.02C237.702 286.983 238.275 286.801 238.78 286.49C239.265 286.065 239.631 285.52 239.84 284.91C248.3 265.917 255.893 246.567 262.62 226.86C263.81 223.37 264.99 219.72 264.51 216.06C263.82 210.73 259.81 206.53 256 202.74L226.31 173.12C225.555 172.269 224.628 171.587 223.59 171.12C222.396 170.765 221.133 170.703 219.91 170.94C208.2 172.39 192.21 172.84 170.69 171.94C167.9 171.82 181.69 187.71 182.84 190.76C183.76 193.18 186.67 196.3 188.45 198.18C192.91 202.86 198.93 205.95 205.01 208.01Z" fill="#525263"/>
<path d="M205.01 208.01C214.08 211.08 223.75 212.37 232.49 216.28C232.772 216.365 233.032 216.508 233.256 216.699C233.48 216.89 233.662 217.125 233.79 217.39C233.866 217.823 233.811 218.269 233.63 218.67C226.249 240.621 222.086 263.526 221.27 286.67C226.5 287.611 231.844 287.729 237.11 287.02C237.702 286.983 238.275 286.801 238.78 286.49C239.265 286.065 239.631 285.52 239.84 284.91C248.3 265.917 255.893 246.567 262.62 226.86C263.81 223.37 264.99 219.72 264.51 216.06C263.82 210.73 259.81 206.53 256 202.74L226.31 173.12C225.555 172.269 224.628 171.587 223.59 171.12C222.396 170.765 221.133 170.703 219.91 170.94C208.2 172.39 192.21 172.84 170.69 171.94C167.9 171.82 181.69 187.71 182.84 190.76C183.76 193.18 186.67 196.3 188.45 198.18C192.91 202.86 198.93 205.95 205.01 208.01Z" fill="url(#paint4_linear_2_42)"/>
<path d="M219.75 299.8C219.021 300.934 218.528 302.202 218.3 303.53C217.767 305.854 217.373 308.209 217.12 310.58C216.92 312.42 216.85 314.42 217.9 315.93C218.95 317.44 220.68 317.99 222.3 318.62C226.378 320.298 230.34 322.246 234.16 324.45C236.74 325.87 239.43 327.34 242.37 327.45C245.31 327.56 248.56 325.95 249.23 323.09C249.462 321.713 249.345 320.3 248.89 318.98C247.285 313.242 244.137 308.054 239.79 303.98C239.028 303.236 238.178 302.588 237.26 302.05C236.379 301.595 235.458 301.22 234.51 300.93C231.839 299.953 229.102 299.168 226.32 298.58C223.89 298.19 221.43 297.47 219.75 299.8Z" fill="#2E2E3F"/>
<path d="M219.75 299.8C219.021 300.934 218.528 302.202 218.3 303.53C217.767 305.854 217.373 308.209 217.12 310.58C216.92 312.42 216.85 314.42 217.9 315.93C218.95 317.44 220.68 317.99 222.3 318.62C226.378 320.298 230.34 322.246 234.16 324.45C236.74 325.87 239.43 327.34 242.37 327.45C245.31 327.56 248.56 325.95 249.23 323.09C249.462 321.713 249.345 320.3 248.89 318.98C247.285 313.242 244.137 308.054 239.79 303.98C239.028 303.236 238.178 302.588 237.26 302.05C236.379 301.595 235.458 301.22 234.51 300.93C231.839 299.953 229.102 299.168 226.32 298.58C223.89 298.19 221.43 297.47 219.75 299.8Z" fill="url(#paint5_linear_2_42)"/>
<path d="M222.72 287.42C221.962 291.376 221.567 295.392 221.54 299.42C221.54 301.19 221.66 303.15 222.93 304.42C224.132 305.375 225.664 305.814 227.19 305.64C229.029 305.572 230.844 305.197 232.56 304.53C232.941 304.411 233.285 304.198 233.56 303.91C233.763 303.626 233.903 303.302 233.97 302.96C235.496 297.236 236.306 291.344 236.38 285.42C236.477 284.491 236.285 283.555 235.83 282.74C234.88 281.41 232.91 281.47 231.31 281.79C229.262 282.229 227.254 282.841 225.31 283.62C223.47 284.26 223.09 285.52 222.72 287.42Z" fill="#F5BCBA"/>
<path d="M242.44 306.22C243.163 307.997 243.751 309.825 244.2 311.69C244.51 313.14 244.69 314.69 245.62 315.85C246.8 317.3 248.85 317.67 250.72 317.7C252.261 317.787 253.802 317.527 255.23 316.94C255.973 316.649 256.594 316.112 256.99 315.42C257.268 314.736 257.364 313.992 257.27 313.26C257.124 308.179 255.857 303.194 253.56 298.66C252.243 296.317 250.759 294.071 249.12 291.94C248.602 290.982 247.73 290.264 246.69 289.94C246.155 289.921 245.622 290.009 245.123 290.2C244.623 290.391 244.166 290.68 243.78 291.05C242.13 292.29 238.5 294.36 238.88 296.71C239.36 299.84 241.32 303.25 242.44 306.22Z" fill="#F5BCBA"/>
<path d="M254.56 309.91C253.428 310.543 252.33 311.234 251.27 311.98C249.62 312.89 247.68 313.07 245.87 313.59C245.392 313.682 244.953 313.915 244.61 314.26C244.361 314.597 244.205 314.994 244.16 315.41C243.82 318.14 243.932 320.907 244.49 323.6C245.41 329.427 246.483 335.23 247.71 341.01C248.22 343.39 248.83 345.9 250.56 347.61C252.29 349.32 254.92 349.91 257.38 349.98C259.682 350.112 261.981 349.683 264.08 348.73C265.75 347.836 267.196 346.577 268.311 345.046C269.426 343.516 270.181 341.753 270.52 339.89C271.171 336.144 270.712 332.289 269.2 328.8C268.173 326.414 266.977 324.105 265.62 321.89C263.82 318.797 262.027 315.703 260.24 312.61C258.88 310.25 257.64 308.6 254.56 309.91Z" fill="#2E2E3F"/>
<path d="M254.56 309.91C253.428 310.543 252.33 311.234 251.27 311.98C249.62 312.89 247.68 313.07 245.87 313.59C245.392 313.682 244.953 313.915 244.61 314.26C244.361 314.597 244.205 314.994 244.16 315.41C243.82 318.14 243.932 320.907 244.49 323.6C245.41 329.427 246.483 335.23 247.71 341.01C248.22 343.39 248.83 345.9 250.56 347.61C252.29 349.32 254.92 349.91 257.38 349.98C259.682 350.112 261.981 349.683 264.08 348.73C265.75 347.836 267.196 346.577 268.311 345.046C269.426 343.516 270.181 341.753 270.52 339.89C271.171 336.144 270.712 332.289 269.2 328.8C268.173 326.414 266.977 324.105 265.62 321.89C263.82 318.797 262.027 315.703 260.24 312.61C258.88 310.25 257.64 308.6 254.56 309.91Z" fill="url(#paint6_linear_2_42)"/>
<path d="M133.4 126.87C132.525 129.072 131.94 131.378 131.66 133.73C130.709 139.821 130.101 145.961 129.84 152.12C129.34 163.88 130.1 175.66 129.77 187.42C129.43 199.65 127.99 212.33 132.39 223.74C133.075 225.811 134.232 227.693 135.77 229.24C136.548 230.001 137.507 230.551 138.557 230.838C139.607 231.125 140.713 231.139 141.77 230.88C142.727 230.512 143.585 229.927 144.279 229.173C144.973 228.418 145.483 227.514 145.77 226.53C146.321 224.559 146.564 222.515 146.49 220.47L146.65 209.29C146.65 209.06 146.65 208.79 146.88 208.69C146.976 208.657 147.08 208.649 147.18 208.669C147.28 208.688 147.373 208.733 147.45 208.8C148.31 209.543 149.128 210.335 149.9 211.17C150.79 211.89 152.21 212.24 153 211.41C153.219 211.119 153.374 210.785 153.455 210.43C153.536 210.075 153.541 209.707 153.47 209.35C152.99 204.51 148.77 201.02 146.26 196.85C142.64 190.85 142.64 183.29 143.55 176.31C144.68 167.57 147.04 159.04 149.39 150.54L151.39 143.35C152.9 137.89 154.39 131.93 152.19 126.7C151.307 124.691 149.961 122.92 148.264 121.529C146.566 120.139 144.564 119.17 142.42 118.7C138.24 117.93 134.91 123.47 133.4 126.87Z" fill="#F5BCBA"/>
<path d="M226.24 172.34C224.95 175.81 217.67 171.76 213.51 173.84C205.57 177.84 196.51 173.73 187.66 173.84C178.24 174.01 171.74 183.29 162.39 184.47C161.71 184.61 161.01 184.61 160.33 184.47C159.04 184.09 158.28 182.8 157.73 181.59C156.923 179.723 156.346 177.766 156.01 175.76C154.85 169.12 156.01 162 157.25 155.25C158.29 149.53 159.327 143.807 160.36 138.08C161.56 131.413 162.77 124.707 163.99 117.96C164.701 113.509 165.704 109.11 166.99 104.79C167.23 104.04 167.48 103.31 167.75 102.59C170.076 96.7254 172.882 91.0629 176.14 85.66C178.14 82.19 180.14 78.66 183.23 76.03C186.68 73.12 191.13 71.67 195.6 70.97C199.62 70.2123 203.765 70.4527 207.67 71.67C209.9 72.45 210.74 74.81 212.51 76.26C214.754 77.9223 216.756 79.8877 218.46 82.1C220.191 84.771 221.427 87.7314 222.11 90.84C228.38 115.22 219.31 141.52 225.27 165.97C225.95 168.84 227.27 169.6 226.24 172.34Z" fill="#68E1FD"/>
<path d="M217.72 86.7L218.5 91.81L215.5 90.14V103.68L212.08 88.64L215.39 83.82L217.72 86.7Z" fill="url(#paint7_linear_2_42)"/>
<path d="M192.32 86.37L194.21 87.37L197.21 89.98L189.21 111.44C189.21 111.44 200.83 93.56 201.21 84.44C201.445 78.8302 200.746 73.2203 199.14 67.84L192.32 86.37Z" fill="url(#paint8_linear_2_42)"/>
<path d="M166.7 147.88C166.065 152.793 166.065 157.767 166.7 162.68C167.11 165.77 167.77 168.85 167.56 171.95C167.57 172.556 167.376 173.147 167.01 173.63C166.54 174.012 165.964 174.239 165.36 174.28C162.233 174.773 159.103 175.277 155.97 175.79C154.81 169.15 155.97 162.03 157.21 155.28C158.25 149.56 159.287 143.837 160.32 138.11C161.52 131.443 162.73 124.737 163.95 117.99C164.662 113.539 165.664 109.14 166.95 104.82C167.19 104.07 167.44 103.34 167.71 102.62C170.81 100.9 175.12 99.62 177.04 102.4C179.04 105.4 176.41 112.4 175.63 115.4C172.79 126.27 168.13 136.66 166.7 147.88Z" fill="url(#paint9_linear_2_42)"/>
<path d="M238.63 61.18C238.734 62.4235 238.697 63.6747 238.52 64.91C238.419 65.5258 238.112 66.0889 237.648 66.5069C237.185 66.9249 236.593 67.1728 235.97 67.21C232.85 66.98 230.6 69.97 228.12 71.89C226.174 73.348 223.864 74.2416 221.444 74.4727C219.024 74.7038 216.586 74.2634 214.4 73.2C213.966 73.0438 213.488 73.0604 213.065 73.2465C212.643 73.4327 212.308 73.774 212.13 74.2C211.818 75.0821 211.749 76.0319 211.93 76.95L213.08 87.89C213.3 90 213.32 92.58 211.53 93.72C209.74 94.86 207.62 93.87 206.14 92.58C203.813 90.3425 202.131 87.5207 201.27 84.41C199.315 78.1075 199.034 71.4044 200.456 64.9605C201.878 58.5166 204.954 52.5541 209.38 47.66C211.042 45.8025 212.99 44.2226 215.15 42.98C217.411 41.8062 219.84 40.9867 222.35 40.55C224.596 40.0198 226.919 39.8911 229.21 40.17C232.287 40.7294 235.085 42.3115 237.15 44.66C238.67 46.32 240.15 51.27 241.75 52.08C240.56 55.1 238.68 57.77 238.63 61.18Z" fill="#F5BCBA"/>
<path d="M214.83 18.24C213.364 17.8971 211.834 17.9419 210.39 18.37C207.57 19.37 205.99 22.32 204.97 25.13C203.95 27.94 203.11 31.01 200.89 33C198.98 34.72 196.27 35.41 194.55 37.31C192.55 39.52 192.36 42.79 192.55 45.76C192.55 47.9883 193.177 50.1715 194.36 52.06C195.42 53.5 197.05 54.5 197.88 56.06C198.82 57.85 199.14 60.62 201.16 60.74C202.002 60.6975 202.798 60.3406 203.39 59.74C205.432 57.9752 206.971 55.7016 207.85 53.15C208.34 51.73 208.66 50.15 209.74 49.15C210.82 48.15 213.02 48.09 213.51 49.51C213.648 50.4135 213.508 51.3374 213.11 52.16C212.85 53.04 212.96 54.23 213.82 54.53C215.44 52.03 216.35 49.09 218.27 46.82C219.36 45.5434 220.727 44.5329 222.267 43.8661C223.807 43.1993 225.479 42.8938 227.156 42.9729C228.832 43.0521 230.469 43.5138 231.939 44.3227C233.41 45.1317 234.676 46.2664 235.64 47.64C236.64 49.07 237.32 50.77 238.72 51.79C240.039 52.5936 241.546 53.0351 243.09 53.07C246.53 53.41 250.17 53.54 253.27 52.01C256.37 50.48 258.66 46.77 257.47 43.52C256.53 40.97 253.85 39.52 251.25 38.7C248.65 37.88 245.87 37.47 243.58 36.01C240.47 34.01 238.81 30.45 237 27.22C235.19 23.99 232.74 20.67 229.12 19.91C227.642 19.68 226.138 19.68 224.66 19.91C223.218 20.2159 221.742 20.3302 220.27 20.25C218.47 19.88 216.73 18.66 214.83 18.24Z" fill="#2E2E3F"/>
<path d="M214.83 100.41C217.114 111.978 217.787 123.807 216.83 135.56C216.04 145.34 214.16 155.05 214.23 164.86C214.377 167.619 214.293 170.385 213.98 173.13C213.54 175.85 195.3 174.81 192.64 174.78C188.16 174.72 193.84 180.78 190.47 177.86C185.18 173.25 182.82 166.06 182.17 159.08C181.24 149.13 183.28 139.17 185.5 129.42C187.04 122.67 188.68 115.9 191.44 109.55C194.86 101.7 200.27 91.71 202.01 83.32C202.26 82.09 198.01 77.62 199.84 77.68C201.03 77.68 200.47 79.53 200.68 80.45C201.055 81.8509 201.773 83.1363 202.77 84.19C204.165 85.8187 206.054 86.9461 208.15 87.4C209.5 87.65 211.04 87.59 212.02 88.55C213.21 89.71 213.02 91.97 213.36 93.55C213.85 95.81 214.37 98.1 214.83 100.41Z" fill="#F2F2F2"/>
<path d="M174.34 70.66C169.5 72.88 165.34 76.32 161.41 79.92C158.157 82.8513 155.085 85.977 152.21 89.28C149.67 92.28 147.35 95.39 144.67 98.22C140.97 102.11 136.35 105.87 135.62 111.22C135.397 114.01 135.885 116.811 137.04 119.36C137.992 121.963 139.397 124.377 141.19 126.49C143.466 129.007 146.467 130.755 149.78 131.49C150.818 131.761 151.902 131.808 152.96 131.63C154.45 131.206 155.82 130.439 156.96 129.39C159.567 127.417 162.036 125.269 164.35 122.96C166.71 120.51 168.71 117.72 171.01 115.21C173.01 113.05 175.14 111.1 177.14 108.98C179.53 106.44 181.66 103.67 183.79 100.9C186.804 97.1429 189.567 93.1909 192.06 89.07C194.143 85.4332 195.797 81.5675 196.99 77.55C197.76 74.93 198.99 71.61 196.33 69.72C190.68 65.74 179.97 68.03 174.34 70.66Z" fill="#68E1FD"/>
<path d="M174.34 70.66C169.5 72.88 165.34 76.32 161.41 79.92C158.157 82.8513 155.085 85.977 152.21 89.28C149.67 92.28 147.35 95.39 144.67 98.22C140.97 102.11 136.35 105.87 135.62 111.22C135.397 114.01 135.885 116.811 137.04 119.36C137.992 121.963 139.397 124.377 141.19 126.49C143.466 129.007 146.467 130.755 149.78 131.49C150.818 131.761 151.902 131.808 152.96 131.63C154.45 131.206 155.82 130.439 156.96 129.39C159.567 127.417 162.036 125.269 164.35 122.96C166.71 120.51 168.71 117.72 171.01 115.21C173.01 113.05 175.14 111.1 177.14 108.98C179.53 106.44 181.66 103.67 183.79 100.9C186.804 97.1429 189.567 93.1909 192.06 89.07C194.143 85.4332 195.797 81.5675 196.99 77.55C197.76 74.93 198.99 71.61 196.33 69.72C190.68 65.74 179.97 68.03 174.34 70.66Z" fill="#68E1FD"/>
<path d="M258.17 116.32C257.089 117.003 256.316 118.08 256.015 119.324C255.715 120.567 255.91 121.878 256.56 122.98C258.239 125.901 260.491 128.452 263.18 130.48C264.78 132.2 268.38 132.48 271.58 130.6C274.78 128.72 290.05 120.41 297.68 114.98C298.24 114.595 298.715 114.101 299.077 113.526C299.44 112.951 299.681 112.309 299.787 111.638C299.892 110.967 299.86 110.282 299.692 109.623C299.525 108.965 299.224 108.348 298.81 107.81L292.42 99.81C291.663 98.8632 290.583 98.2294 289.387 98.0301C288.191 97.8308 286.963 98.08 285.94 98.73L258.17 116.32Z" fill="#3D3D54"/>
<path d="M156.68 202.51C157.808 206.652 159.81 210.505 162.55 213.81C165.55 217.31 169.63 219.81 173.55 222.19L190.06 232.24C192.481 233.632 194.797 235.2 196.99 236.93C202.4 241.39 205.99 247.61 209.48 253.69L233.56 295.66C234.78 297.81 236.49 300.24 238.96 300.16C240.29 299.987 241.541 299.431 242.56 298.56C245.65 296.39 248.97 293.92 249.89 290.25C250.53 287.69 249.89 285 249.12 282.46C245.42 269.95 239.62 258.17 233.8 246.46C224.553 227.927 215.17 209.43 205.65 190.97C203.12 186.07 200.05 178.44 195.87 174.84C195.87 174.84 157.03 172.48 156.05 176.33C153.867 184.951 154.085 194.004 156.68 202.51Z" fill="#525263"/>
<path d="M156.68 202.51C157.808 206.652 159.81 210.505 162.55 213.81C165.55 217.31 169.63 219.81 173.55 222.19L190.06 232.24C192.481 233.632 194.797 235.2 196.99 236.93C202.4 241.39 205.99 247.61 209.48 253.69L233.56 295.66C234.78 297.81 236.49 300.24 238.96 300.16C240.29 299.987 241.541 299.431 242.56 298.56C245.65 296.39 248.97 293.92 249.89 290.25C250.53 287.69 249.89 285 249.12 282.46C245.42 269.95 239.62 258.17 233.8 246.46C224.553 227.927 215.17 209.43 205.65 190.97C203.12 186.07 200.05 178.44 195.87 174.84C195.87 174.84 157.03 172.48 156.05 176.33C153.867 184.951 154.085 194.004 156.68 202.51Z" fill="url(#paint10_linear_2_42)"/>
<path d="M200.36 65.18L194.87 67.35L191.54 85.98L202.61 85.48L200.36 65.18Z" fill="#68E1FD"/>
<path d="M211.98 85.03C211.98 85.87 211.98 86.71 211.98 87.55C211.98 87.9142 212 88.2781 212.04 88.64C212.1 89.0075 212.18 89.3714 212.28 89.73L213.66 95.17L214.23 86.33C215.86 87.12 217.53 87.84 219.23 88.47C219.102 87.1452 218.764 85.8491 218.23 84.63C217.23 82.07 216.31 79.5 215.23 76.99C214.978 76.3196 214.612 75.6972 214.15 75.15C213.917 74.8786 213.624 74.6651 213.294 74.5263C212.964 74.3875 212.607 74.3271 212.25 74.35C211.25 74.77 211.88 78.52 211.89 79.35L211.98 85.03Z" fill="#68E1FD"/>
<path d="M292.88 111.94L272.56 124.79C272.204 124.982 271.793 125.047 271.395 124.975C270.997 124.902 270.635 124.696 270.37 124.39L263.91 117.11C263.777 116.986 263.674 116.833 263.609 116.664C263.544 116.494 263.518 116.312 263.533 116.131C263.549 115.95 263.605 115.775 263.698 115.619C263.791 115.463 263.918 115.33 264.07 115.23L284.43 102.39C284.786 102.198 285.197 102.133 285.595 102.205C285.993 102.278 286.355 102.484 286.62 102.79L293.08 110.06C293.211 110.187 293.311 110.342 293.373 110.513C293.435 110.684 293.457 110.868 293.438 111.049C293.419 111.23 293.359 111.404 293.262 111.559C293.165 111.713 293.035 111.844 292.88 111.94Z" fill="#68E1FD"/>
</g>
<defs>
<linearGradient id="paint0_linear_2_42" x1="202.47" y1="119.2" x2="243.51" y2="118.57" gradientUnits="userSpaceOnUse">
<stop offset="0.01"/>
<stop offset="0.13" stop-opacity="0.69"/>
<stop offset="1" stop-opacity="0"/>
</linearGradient>
<linearGradient id="paint1_linear_2_42" x1="326.9" y1="79.28" x2="14.65" y2="405.43" gradientUnits="userSpaceOnUse">
<stop offset="0.01"/>
<stop offset="0.13" stop-opacity="0.69"/>
<stop offset="1" stop-opacity="0"/>
</linearGradient>
<linearGradient id="paint2_linear_2_42" x1="243.44" y1="201.43" x2="153.81" y2="295.06" gradientUnits="userSpaceOnUse">
<stop offset="0.01"/>
<stop offset="0.13" stop-opacity="0.69"/>
<stop offset="1" stop-opacity="0"/>
</linearGradient>
<linearGradient id="paint3_linear_2_42" x1="112.81" y1="187.74" x2="233.94" y2="263.61" gradientUnits="userSpaceOnUse">
<stop offset="0.01"/>
<stop offset="0.13" stop-opacity="0.69"/>
<stop offset="1" stop-opacity="0"/>
</linearGradient>
<linearGradient id="paint4_linear_2_42" x1="170.32" y1="229.1" x2="264.62" y2="229.1" gradientUnits="userSpaceOnUse">
<stop offset="0.01"/>
<stop offset="0.13" stop-opacity="0.69"/>
<stop offset="1" stop-opacity="0"/>
</linearGradient>
<linearGradient id="paint5_linear_2_42" x1="255.17" y1="318.48" x2="229.22" y2="311.82" gradientUnits="userSpaceOnUse">
<stop offset="0.01"/>
<stop offset="0.13" stop-opacity="0.69"/>
<stop offset="1" stop-opacity="0"/>
</linearGradient>
<linearGradient id="paint6_linear_2_42" x1="243.96" y1="329.72" x2="270.86" y2="329.72" gradientUnits="userSpaceOnUse">
<stop offset="0.01"/>
<stop offset="0.13" stop-opacity="0.69"/>
<stop offset="1" stop-opacity="0"/>
</linearGradient>
<linearGradient id="paint7_linear_2_42" x1="200.19" y1="81.05" x2="227.92" y2="104.12" gradientUnits="userSpaceOnUse">
<stop offset="0.01"/>
<stop offset="0.13" stop-opacity="0.69"/>
<stop offset="1" stop-opacity="0"/>
</linearGradient>
<linearGradient id="paint8_linear_2_42" x1="218.45" y1="80.04" x2="167.2" y2="100.34" gradientUnits="userSpaceOnUse">
<stop offset="0.01"/>
<stop offset="0.13" stop-opacity="0.69"/>
<stop offset="1" stop-opacity="0"/>
</linearGradient>
<linearGradient id="paint9_linear_2_42" x1="132" y1="139.42" x2="195.5" y2="137.22" gradientUnits="userSpaceOnUse">
<stop offset="0.01"/>
<stop offset="0.13" stop-opacity="0.69"/>
<stop offset="1" stop-opacity="0"/>
</linearGradient>
<linearGradient id="paint10_linear_2_42" x1="185.06" y1="243.41" x2="256.28" y2="213.46" gradientUnits="userSpaceOnUse">
<stop offset="0.01"/>
<stop offset="0.13" stop-opacity="0.69"/>
<stop offset="1" stop-opacity="0"/>
</linearGradient>
<clipPath id="clip0_2_42">
<rect width="351.9" height="396.01" fill="white"/>
</clipPath>
</defs>
</svg>
